<svg width="118" height="103" viewBox="0 0 118 103" fill="none" xmlns="http://www.w3.org/2000/svg">
<path d="M68.9974 32.6123C67.9974 28.1123 67.2974 19.3123 72.4974 20.1123C77.6974 20.9123 72.3307 28.7789 68.9974 32.6123Z" fill="#D9D9D9" stroke="black" stroke-width="2"/>
<path d="M61.4237 22.5205C61.1399 25.7388 62.519 29.6735 63.2441 31.2385C51.0908 24.1987 24.5498 23.8805 14.7787 37.5848C2.56495 54.7153 11.3957 69.8262 12.6549 73.1639C15.4973 79.8483 16.9974 82.2667 18.4973 85.2112C19.9973 88.1556 24.9973 87.2262 25.3594 85.7409C25.7215 84.2555 27.1934 79.8483 27.1934 79.8483C31.4063 82.9698 43.1408 82.7937 46.4973 81.9257C45.9973 83.1123 46.2275 84.9984 46.4973 86.1123C46.767 87.2262 50.709 87.1556 50.709 87.1556C52.9407 87.2966 53.1848 84.6123 53.4218 81.9257C54.0271 75.0631 59.6748 71.704 63.9233 70.5079C63.5893 74.2942 80.4583 87.3742 83.4999 89.1123C86.9999 91.1123 90.4368 89.1406 89.9999 87.1556C88.9999 82.6123 85.4999 86.1123 79.4999 80.1123C64.9321 65.5445 70.7912 62.6122 73 62.6122C78 62.6122 88.5 62.6122 100.5 56.6122C107.907 52.9085 127 37.6122 108.5 19.1122C98.3361 8.94836 86 19.1123 81 25.6123C77.1574 30.6076 73.0959 34.3623 67.3256 31.9356C68.1242 30.7108 69.7964 27.4094 70.097 24.0018C70.4727 19.7422 67.3041 18.4805 65.9436 18.2481C64.5831 18.0158 61.7786 18.4976 61.4237 22.5205Z" fill="white" stroke="black" stroke-width="2" stroke-linejoin="round"/>
<path d="M2.16864 68.1974C-0.631356 59.2919 1.49731 51.1122 9.66864 48.0209C8.66867 52.1953 9.38371 54.7651 8.66867 54.9783C1.66867 57.0655 2.66864 70.2846 2.16864 68.1974Z" fill="white" stroke="black" stroke-width="2" stroke-linejoin="round"/>
<path d="M79.5226 49.7718C79.5226 47.0833 79.2735 47.293 77.6143 46.236C76.7502 45.6854 75.7153 45.287 74.9102 44.5689C74.6728 44.3572 74.603 44.2059 74.3133 44.2059C73.5469 44.2059 72.7729 44.7836 72.5226 45.8999" stroke="black" stroke-width="2" stroke-linecap="round" stroke-linejoin="round"/>
</svg>
