<svg width="120" height="94" viewBox="0 0 120 94" fill="none" xmlns="http://www.w3.org/2000/svg">
<path d="M68.9974 23.4999C67.9974 18.9999 67.2974 10.1999 72.4974 10.9999C77.6974 11.7999 72.3307 19.6666 68.9974 23.4999Z" fill="#D9D9D9" stroke="black" stroke-width="2"/>
<path d="M61.4238 13.4082C61.1399 16.6265 62.5191 20.5612 63.2442 22.1262C46.4973 0.499944 22.6021 17.5 14.7788 28.4725C2.56501 45.6029 11.3958 60.7139 12.655 64.0516C15.4973 70.7359 16.9974 73.1544 18.4974 76.0988C19.9973 79.0433 24.9973 78.1139 25.3595 76.6285C25.7216 75.1432 27.1935 70.7359 27.1935 70.7359C31.4064 73.8575 43.1409 73.6813 46.4973 72.8133C45.9973 73.9999 46.2276 75.886 46.4973 76.9999C46.7671 78.1139 50.7091 78.0433 50.7091 78.0433C52.9408 78.1842 53.1849 75.4999 53.4219 72.8133C54.0272 65.9508 59.6749 62.5916 63.9234 61.3956C63.5894 65.1818 69.9714 69.1542 73.2861 68.7595C76.6008 68.3648 76.5112 65.4671 74.9806 65.2057C73.45 64.9443 73.5574 65.6832 71.3435 63.3835C69.1296 61.0837 70.6363 59.6596 72.4026 61.1623C74.1689 62.665 81.4909 69.6804 93.1774 68.3134C104.864 66.9465 115.153 61.1623 116.497 48.9999C118.497 30.9107 106.997 19.8699 88.4974 24.5988C82.3488 26.1705 73.096 25.25 67.3257 22.8233C68.1243 21.5985 69.7965 18.297 70.097 14.8894C70.4728 10.6299 67.3042 9.36815 65.9437 9.13579C64.5832 8.90344 61.7787 9.38528 61.4238 13.4082Z" fill="white" stroke="black" stroke-width="2" stroke-linejoin="round"/>
<path d="M2.16864 59.0851C-0.631356 50.1796 1.49731 41.9999 9.66864 38.9086C8.66867 43.083 9.38371 45.6528 8.66867 45.866C1.66867 47.9532 2.66864 61.1723 2.16864 59.0851Z" fill="white" stroke="black" stroke-width="2" stroke-linejoin="round"/>
<path d="M79.5226 40.6595C79.5226 37.971 79.2735 38.1807 77.6143 37.1237C76.7502 36.5731 75.7153 36.1747 74.9102 35.4566C74.6728 35.2449 74.603 35.0936 74.3133 35.0936C73.5469 35.0936 72.7729 35.6713 72.5226 36.7876" stroke="black" stroke-width="2" stroke-linecap="round" stroke-linejoin="round"/>
</svg>
