<svg width="120" height="94" viewBox="0 0 120 94" fill="none" xmlns="http://www.w3.org/2000/svg">
<path d="M69.5 23.5C68.5 19 67.8 10.2 73 11C78.2 11.8 72.8334 19.6667 69.5 23.5Z" fill="#D9D9D9" stroke="black" stroke-width="2"/>
<path d="M61.9265 13.4082C61.6426 16.6265 63.0218 20.5612 63.7469 22.1263C51.5935 15.0864 25.0525 14.7682 15.2815 28.4726C3.06769 45.603 11.8985 60.7139 13.1577 64.0517C16 70.736 17.5001 73.1544 19.0001 76.0989C20.5 79.0433 25.5 78.1139 25.8621 76.6286C26.2243 75.1432 27.6961 70.736 27.6961 70.736C31.909 73.8575 43.6436 73.6814 47 72.8134C46.5 74 46.7303 75.8861 47 77C47.2697 78.1139 51.2118 78.0433 51.2118 78.0433C53.4435 78.1843 53.6876 75.5 53.9245 72.8134C54.5299 65.9508 60.1775 62.5917 64.4261 61.3957C64.0921 65.1819 70.4741 69.1543 73.7888 68.7596C77.1035 68.3649 77.0138 65.4671 75.4833 65.2057C73.9527 64.9443 74.0601 65.6833 71.8462 63.3835C69.6323 61.0838 71.1389 59.6597 72.9053 61.1624C74.6716 62.665 81.9936 69.6805 93.68 68.3135C105.367 66.9465 115.655 61.1624 117 49C119 30.9108 107.5 19.87 89.0001 24.5989C82.8515 26.1706 73.5987 25.2501 67.8284 22.8234C68.6269 21.5986 70.2991 18.2971 70.5997 14.8895C70.9754 10.63 67.8068 9.36821 66.4463 9.13585C65.0858 8.90349 62.2813 9.38534 61.9265 13.4082Z" fill="white" stroke="black" stroke-width="2" stroke-linejoin="round"/>
<path d="M2.67133 59.0851C-0.12867 50.1797 2 42 10.1713 38.9087C9.17136 43.0831 9.8864 45.6529 9.17136 45.8661C2.17136 47.9533 3.17133 61.1723 2.67133 59.0851Z" fill="white" stroke="black" stroke-width="2" stroke-linejoin="round"/>
<path d="M80.0253 40.6596C80.0253 37.9711 79.7762 38.1808 78.117 37.1237C77.2528 36.5732 76.218 36.1748 75.4129 35.4567C75.1755 35.2449 75.1057 35.0937 74.816 35.0937C74.0496 35.0937 73.2756 35.6714 73.0253 36.7876" stroke="black" stroke-width="2" stroke-linecap="round" stroke-linejoin="round"/>
</svg>
