<svg width="124" height="95" viewBox="0 0 124 95" fill="none" xmlns="http://www.w3.org/2000/svg">
<path d="M72.9974 24.6123C71.9974 20.1123 71.2974 11.3123 76.4974 12.1123C81.6974 12.9123 76.3307 20.7789 72.9974 24.6123Z" fill="#D9D9D9" stroke="black" stroke-width="2"/>
<path d="M65.4237 14.5205C65.1398 17.7388 66.519 21.6735 67.2441 23.2385C55.0908 16.1987 31.1933 25.7111 18.7787 29.5848C-1.36036 35.8687 15.3957 61.8262 16.6549 65.1639C19.4972 71.8482 20.9974 74.2667 22.4973 77.2111C23.9972 80.1556 28.9972 79.2262 29.3594 77.7408C29.7215 76.2555 31.1933 71.8482 31.1933 71.8482C35.4063 74.9698 47.1408 74.7936 50.4972 73.9257C49.9972 75.1123 50.2275 76.9983 50.4972 78.1123C50.767 79.2262 54.709 79.1556 54.709 79.1556C56.9407 79.2965 57.1848 76.6123 57.4218 73.9257C58.0271 67.0631 63.6748 63.704 67.9233 62.5079C67.5893 66.2941 73.9713 70.2666 77.286 69.8718C80.6007 69.4771 80.5111 66.5794 78.9805 66.318C77.4499 66.0566 77.5574 66.7955 75.3435 64.4958C73.1296 62.196 74.6362 60.7719 76.4025 62.2746C78.1689 63.7773 85.4908 70.7927 97.1773 69.4257C108.864 68.0588 119.153 62.2746 120.497 50.1123C122.497 32.023 110.997 20.9822 92.4973 25.7111C86.3488 27.2828 77.0959 26.3623 71.3256 23.9356C72.1242 22.7108 73.7964 19.4094 74.097 16.0017C74.4727 11.7422 71.3041 10.4805 69.9436 10.2481C68.5831 10.0157 65.7786 10.4976 65.4237 14.5205Z" fill="white" stroke="black" stroke-width="2" stroke-linejoin="round"/>
<path d="M2.16864 60.1765C-0.631356 51.271 1.49731 43.0913 9.66864 40C8.66867 44.1744 9.38371 46.7442 8.66867 46.9574C1.66867 49.0446 2.66864 62.2637 2.16864 60.1765Z" fill="white" stroke="black" stroke-width="2" stroke-linejoin="round"/>
<path d="M83.5226 41.7718C83.5226 39.0834 83.2735 39.293 81.6143 38.236C80.7502 37.6855 79.7153 37.2871 78.9102 36.5689C78.6728 36.3572 78.603 36.2059 78.3133 36.2059C77.5469 36.2059 76.7729 36.7836 76.5226 37.8999" stroke="black" stroke-width="2" stroke-linecap="round" stroke-linejoin="round"/>
</svg>
