<svg width="127" height="95" viewBox="0 0 127 95" fill="none" xmlns="http://www.w3.org/2000/svg">
<path d="M75.9976 24.1642C74.9976 19.6642 74.2976 10.8642 79.4976 11.6642C84.6976 12.4642 79.3309 20.3308 75.9976 24.1642Z" fill="#D9D9D9" stroke="black" stroke-width="2"/>
<path d="M68.424 14.0724C68.1401 17.2907 69.5193 21.2254 70.2444 22.7904C58.091 15.7506 34.1936 25.263 21.779 29.1367C1.63988 35.4206 18.3959 61.3781 19.6552 64.7158C22.4975 71.4001 23.9976 73.8186 25.4975 76.763C26.9975 79.7075 31.9975 78.7781 32.3596 77.2927C32.7217 75.8074 34.1936 71.4001 34.1936 71.4001C38.4065 74.5217 50.141 74.3456 53.4975 73.4776C52.9975 74.6642 53.2278 76.5502 53.4975 77.6642C53.7672 78.7781 57.7093 78.7075 57.7093 78.7075C59.9409 78.8485 60.1851 76.1642 60.422 73.4776C61.0274 66.615 66.675 63.2559 70.9235 62.0598C70.5896 65.8461 76.9716 69.8185 80.2863 69.4238C83.601 69.029 83.5113 66.1313 81.9808 65.8699C80.4502 65.6085 80.5576 66.3474 78.3437 64.0477C76.1298 61.748 77.6364 60.3238 79.4028 61.8265C81.1691 63.3292 88.4911 70.3446 100.178 68.9776C111.864 67.6107 122.153 61.8265 123.497 49.6642C125.497 31.5749 113.998 20.5341 95.4976 25.263C89.349 26.8347 80.0962 25.9142 74.3259 23.4875C75.1244 22.2627 76.7966 18.9613 77.0972 15.5537C77.4729 11.2941 74.3043 10.0324 72.9438 9.80001C71.5833 9.56766 68.7788 10.0495 68.424 14.0724Z" fill="white" stroke="black" stroke-width="2" stroke-linejoin="round"/>
<path d="M1.1891 53.5028C0.383658 44.2023 4.23283 36.6776 12.8796 35.4288C10.9996 39.2877 11.1413 41.9513 10.397 42.0046C3.11117 42.5268 1.22533 55.6488 1.1891 53.5028Z" fill="white" stroke="black" stroke-width="2" stroke-linejoin="round"/>
<path d="M86 41.5659C86 38.8774 85.7509 39.0871 84.0917 38.0301C83.2276 37.4795 82.1928 37.0811 81.3876 36.363C81.1502 36.1513 81.0805 36 80.7907 36C80.0244 36 79.2503 36.5777 79 37.694" stroke="black" stroke-width="2" stroke-linecap="round" stroke-linejoin="round"/>
</svg>
