<svg width="24" height="24" viewBox="0 0 24 24" fill="none" xmlns="http://www.w3.org/2000/svg">
<g clip-path="url(#clip0_127_36)">
<path d="M6 15C5.17 15 4.42 15.34 3.88 15.88C2.7 17.06 2 22 2 22C2 22 6.94 21.3 8.12 20.12C8.66 19.58 9 18.83 9 18C9 16.34 7.66 15 6 15ZM6.71 18.71C6.43 18.99 4.54 19.47 4.54 19.47C4.54 19.47 5.01 17.59 5.3 17.3C5.47 17.11 5.72 17 6 17C6.55 17 7 17.45 7 18C7 18.28 6.89 18.53 6.71 18.71ZM17.42 13.65C23.78 7.28999 21.66 2.33999 21.66 2.33999C21.66 2.33999 16.71 0.219994 10.35 6.57999L7.86 6.07999C7.21 5.94999 6.53 6.15999 6.05 6.62999L2 10.69L7 12.83L11.17 17L13.31 22L17.36 17.95C17.83 17.48 18.04 16.8 17.91 16.14L17.42 13.65ZM7.41 10.83L5.5 10.01L7.47 8.03999L8.91 8.32999C8.34 9.15999 7.83 10.03 7.41 10.83ZM13.99 18.5L13.17 16.59C13.97 16.17 14.84 15.66 15.66 15.09L15.95 16.53L13.99 18.5ZM16 12.24C14.68 13.56 12.62 14.64 11.96 14.97L9.03 12.04C9.35 11.39 10.43 9.32999 11.76 7.99999C16.44 3.31999 19.99 4.00999 19.99 4.00999C19.99 4.00999 20.68 7.55999 16 12.24ZM15 11C16.1 11 17 10.1 17 8.99999C17 7.89999 16.1 6.99999 15 6.99999C13.9 6.99999 13 7.89999 13 8.99999C13 10.1 13.9 11 15 11Z" fill="#FF7017"/>
</g>
<defs>
<clipPath id="clip0_127_36">
<rect width="24" height="24" fill="white"/>
</clipPath>
</defs>
</svg>
