<svg width="15" height="15" viewBox="0 0 15 15" fill="none" xmlns="http://www.w3.org/2000/svg">
<path fill-rule="evenodd" clip-rule="evenodd" d="M5.9375 12.5031C5.90321 13.5241 5.08349 14.3438 4.0625 14.3781C3.02697 14.3781 2.1875 13.5386 2.1875 12.5031C2.1875 11.4676 3.02697 10.6281 4.0625 10.6281H5.9375V12.5031Z" stroke="#131313" stroke-linecap="round" stroke-linejoin="round"/>
<path fill-rule="evenodd" clip-rule="evenodd" d="M12.8125 10.0031C12.7782 11.0241 11.9585 11.8438 10.9375 11.8781C9.90197 11.8781 9.0625 11.0386 9.0625 10.0031C9.0625 8.96758 9.90197 8.12811 10.9375 8.12811H12.8125V10.0031Z" stroke="#131313" stroke-linecap="round" stroke-linejoin="round"/>
<path d="M5.9375 10.6281V3.54812C5.93735 3.29429 6.09073 3.06558 6.32563 2.96937L11.9506 0.668124C12.144 0.58894 12.3641 0.611593 12.5372 0.728493C12.7104 0.845394 12.8137 1.04108 12.8125 1.25V8.13125" stroke="#131313" stroke-linecap="round" stroke-linejoin="round"/>
<path d="M5.9375 5.31561L12.8125 2.50311" stroke="#131313" stroke-linecap="round" stroke-linejoin="round"/>
</svg>
